<?xml version="1.0" encoding="utf-8"?>
<!-- Generator: Adobe Illustrator 18.1.1, SVG Export Plug-In . SVG Version: 6.00 Build 0)  -->
<svg xmlns:xlink="http://www.w3.org/1999/xlink" version="1.1" id="Layer_2" xmlns="http://www.w3.org/2000/svg" x="0px" y="0px"
	 width="299.4px" height="298px" viewBox="0 0 299.4 298" enable-background="new 0 0 299.4 298" xml:space="preserve">
<g>
	<g>
		<rect x="0.8" y="1" fill="#E6E6E6" stroke="#E6E6E6" stroke-miterlimit="10" width="21" height="21"/>
		<rect x="0.8" y="26" fill="#E6E6E6" stroke="#E6E6E6" stroke-miterlimit="10" width="21" height="21"/>
		<rect x="0.8" y="51" fill="#E6E6E6" stroke="#E6E6E6" stroke-miterlimit="10" width="21" height="21"/>
		<rect x="0.8" y="76" fill="#E6E6E6" stroke="#E6E6E6" stroke-miterlimit="10" width="21" height="21"/>
		<rect x="0.8" y="101" fill="#E6E6E6" stroke="#E6E6E6" stroke-miterlimit="10" width="21" height="21"/>
		<rect x="0.8" y="126" fill="#E6E6E6" stroke="#E6E6E6" stroke-miterlimit="10" width="21" height="21"/>
		<rect x="0.8" y="151" fill="#E6E6E6" stroke="#E6E6E6" stroke-miterlimit="10" width="21" height="21"/>
		<rect x="0.8" y="176" fill="#E6E6E6" stroke="#E6E6E6" stroke-miterlimit="10" width="21" height="21"/>
		<rect x="0.8" y="201" fill="#E6E6E6" stroke="#E6E6E6" stroke-miterlimit="10" width="21" height="21"/>
		<rect x="0.8" y="226" fill="#E6E6E6" stroke="#E6E6E6" stroke-miterlimit="10" width="21" height="21"/>
		<rect x="0.8" y="251" fill="#E6E6E6" stroke="#E6E6E6" stroke-miterlimit="10" width="21" height="21"/>
		<rect x="0.8" y="276" fill="#E6E6E6" stroke="#E6E6E6" stroke-miterlimit="10" width="21" height="21"/>
	</g>
	<g>
		<rect x="25.8" y="1" fill="#E6E6E6" stroke="#E6E6E6" stroke-miterlimit="10" width="21" height="21"/>
		<rect x="25.8" y="26" fill="#E6E6E6" stroke="#E6E6E6" stroke-miterlimit="10" width="21" height="21"/>
		<rect x="25.8" y="51" fill="#E6E6E6" stroke="#E6E6E6" stroke-miterlimit="10" width="21" height="21"/>
		<rect x="25.8" y="76" fill="#E6E6E6" stroke="#E6E6E6" stroke-miterlimit="10" width="21" height="21"/>
		<rect x="25.8" y="101" fill="#E6E6E6" stroke="#E6E6E6" stroke-miterlimit="10" width="21" height="21"/>
		<rect x="25.8" y="126" fill="#E6E6E6" stroke="#E6E6E6" stroke-miterlimit="10" width="21" height="21"/>
		<rect x="25.8" y="151" fill="#E6E6E6" stroke="#E6E6E6" stroke-miterlimit="10" width="21" height="21"/>
		<rect x="25.8" y="176" fill="#E6E6E6" stroke="#E6E6E6" stroke-miterlimit="10" width="21" height="21"/>
		<rect x="25.8" y="201" fill="#E6E6E6" stroke="#E6E6E6" stroke-miterlimit="10" width="21" height="21"/>
		<rect x="25.8" y="226" fill="#E6E6E6" stroke="#E6E6E6" stroke-miterlimit="10" width="21" height="21"/>
		<rect x="25.8" y="251" fill="#E6E6E6" stroke="#E6E6E6" stroke-miterlimit="10" width="21" height="21"/>
		<rect x="25.8" y="276" fill="#E6E6E6" stroke="#E6E6E6" stroke-miterlimit="10" width="21" height="21"/>
	</g>
	<g>
		<rect x="50.8" y="1" fill="#E6E6E6" stroke="#E6E6E6" stroke-miterlimit="10" width="22" height="21"/>
		<rect x="50.8" y="26" fill="#E6E6E6" stroke="#E6E6E6" stroke-miterlimit="10" width="22" height="21"/>
		<rect x="50.8" y="51" fill="#E6E6E6" stroke="#E6E6E6" stroke-miterlimit="10" width="22" height="21"/>
		<rect x="50.8" y="76" fill="#E6E6E6" stroke="#E6E6E6" stroke-miterlimit="10" width="22" height="21"/>
		<rect x="50.8" y="101" fill="#E6E6E6" stroke="#E6E6E6" stroke-miterlimit="10" width="22" height="21"/>
		<rect x="50.8" y="126" fill="#E6E6E6" stroke="#E6E6E6" stroke-miterlimit="10" width="22" height="21"/>
		<rect x="50.8" y="151" fill="#E6E6E6" stroke="#E6E6E6" stroke-miterlimit="10" width="22" height="21"/>
		<rect x="50.8" y="176" fill="#E6E6E6" stroke="#E6E6E6" stroke-miterlimit="10" width="22" height="21"/>
		<rect x="50.8" y="201" fill="#E6E6E6" stroke="#E6E6E6" stroke-miterlimit="10" width="22" height="21"/>
		<rect x="50.8" y="226" fill="#E6E6E6" stroke="#E6E6E6" stroke-miterlimit="10" width="22" height="21"/>
		<rect x="50.8" y="251" fill="#E6E6E6" stroke="#E6E6E6" stroke-miterlimit="10" width="22" height="21"/>
		<rect x="50.8" y="276" fill="#E6E6E6" stroke="#E6E6E6" stroke-miterlimit="10" width="22" height="21"/>
	</g>
	<g>
		<rect x="75.8" y="1" fill="#E6E6E6" stroke="#E6E6E6" stroke-miterlimit="10" width="22" height="21"/>
		<rect x="75.8" y="26" fill="#E6E6E6" stroke="#E6E6E6" stroke-miterlimit="10" width="22" height="21"/>
		<rect x="75.8" y="51" fill="#E6E6E6" stroke="#E6E6E6" stroke-miterlimit="10" width="22" height="21"/>
		<rect x="75.8" y="76" fill="#E6E6E6" stroke="#E6E6E6" stroke-miterlimit="10" width="22" height="21"/>
		<rect x="75.8" y="101" fill="#E6E6E6" stroke="#E6E6E6" stroke-miterlimit="10" width="22" height="21"/>
		<rect x="75.8" y="126" fill="#E6E6E6" stroke="#E6E6E6" stroke-miterlimit="10" width="22" height="21"/>
		<rect x="75.8" y="151" fill="#E6E6E6" stroke="#E6E6E6" stroke-miterlimit="10" width="22" height="21"/>
		<rect x="75.8" y="176" fill="#E6E6E6" stroke="#E6E6E6" stroke-miterlimit="10" width="22" height="21"/>
		<rect x="75.8" y="201" fill="#E6E6E6" stroke="#E6E6E6" stroke-miterlimit="10" width="22" height="21"/>
		<rect x="75.8" y="226" fill="#E6E6E6" stroke="#E6E6E6" stroke-miterlimit="10" width="22" height="21"/>
		<rect x="75.8" y="251" fill="#E6E6E6" stroke="#E6E6E6" stroke-miterlimit="10" width="22" height="21"/>
		<rect x="75.8" y="276" fill="#E6E6E6" stroke="#E6E6E6" stroke-miterlimit="10" width="22" height="21"/>
	</g>
	<g>
		<rect x="100.8" y="1" fill="#E6E6E6" stroke="#E6E6E6" stroke-miterlimit="10" width="22" height="21"/>
		<rect x="100.8" y="26" fill="#E6E6E6" stroke="#E6E6E6" stroke-miterlimit="10" width="22" height="21"/>
		<rect x="100.8" y="51" fill="#E6E6E6" stroke="#E6E6E6" stroke-miterlimit="10" width="22" height="21"/>
		<rect x="100.8" y="76" fill="#E6E6E6" stroke="#E6E6E6" stroke-miterlimit="10" width="22" height="21"/>
		<rect x="100.8" y="101" fill="#E6E6E6" stroke="#E6E6E6" stroke-miterlimit="10" width="22" height="21"/>
		<rect x="100.8" y="126" fill="#E6E6E6" stroke="#E6E6E6" stroke-miterlimit="10" width="22" height="21"/>
		<rect x="100.8" y="151" fill="#E6E6E6" stroke="#E6E6E6" stroke-miterlimit="10" width="22" height="21"/>
		<rect x="100.8" y="176" fill="#E6E6E6" stroke="#E6E6E6" stroke-miterlimit="10" width="22" height="21"/>
		<rect x="100.8" y="201" fill="#E6E6E6" stroke="#E6E6E6" stroke-miterlimit="10" width="22" height="21"/>
		<rect x="100.8" y="226" fill="#E6E6E6" stroke="#E6E6E6" stroke-miterlimit="10" width="22" height="21"/>
		<rect x="100.8" y="251" fill="#E6E6E6" stroke="#E6E6E6" stroke-miterlimit="10" width="22" height="21"/>
		<rect x="100.8" y="276" fill="#E6E6E6" stroke="#E6E6E6" stroke-miterlimit="10" width="22" height="21"/>
	</g>
	<g>
		<rect x="201.8" y="1" fill="#E6E6E6" stroke="#E6E6E6" stroke-miterlimit="10" width="22" height="21"/>
		<rect x="201.8" y="26" fill="#E6E6E6" stroke="#E6E6E6" stroke-miterlimit="10" width="22" height="21"/>
		<rect x="201.8" y="51" fill="#E6E6E6" stroke="#E6E6E6" stroke-miterlimit="10" width="22" height="21"/>
		<rect x="201.8" y="76" fill="#E6E6E6" stroke="#E6E6E6" stroke-miterlimit="10" width="22" height="21"/>
		<rect x="201.8" y="101" fill="#E6E6E6" stroke="#E6E6E6" stroke-miterlimit="10" width="22" height="21"/>
		<rect x="201.8" y="126" fill="#E6E6E6" stroke="#E6E6E6" stroke-miterlimit="10" width="22" height="21"/>
		<rect x="201.8" y="151" fill="#E6E6E6" stroke="#E6E6E6" stroke-miterlimit="10" width="22" height="21"/>
		<rect x="201.8" y="176" fill="#E6E6E6" stroke="#E6E6E6" stroke-miterlimit="10" width="22" height="21"/>
		<rect x="201.8" y="201" fill="#E6E6E6" stroke="#E6E6E6" stroke-miterlimit="10" width="22" height="21"/>
		<rect x="201.8" y="226" fill="#E6E6E6" stroke="#E6E6E6" stroke-miterlimit="10" width="22" height="21"/>
		<rect x="201.8" y="251" fill="#E6E6E6" stroke="#E6E6E6" stroke-miterlimit="10" width="22" height="21"/>
		<rect x="201.8" y="276" fill="#E6E6E6" stroke="#E6E6E6" stroke-miterlimit="10" width="22" height="21"/>
	</g>
	<g>
		<rect x="226.8" y="1" fill="#E6E6E6" stroke="#E6E6E6" stroke-miterlimit="10" width="22" height="21"/>
		<rect x="226.8" y="26" fill="#E6E6E6" stroke="#E6E6E6" stroke-miterlimit="10" width="22" height="21"/>
		<rect x="226.8" y="51" fill="#E6E6E6" stroke="#E6E6E6" stroke-miterlimit="10" width="22" height="21"/>
		<rect x="226.8" y="76" fill="#E6E6E6" stroke="#E6E6E6" stroke-miterlimit="10" width="22" height="21"/>
		<rect x="226.8" y="101" fill="#E6E6E6" stroke="#E6E6E6" stroke-miterlimit="10" width="22" height="21"/>
		<rect x="226.8" y="126" fill="#E6E6E6" stroke="#E6E6E6" stroke-miterlimit="10" width="22" height="21"/>
		<rect x="226.8" y="151" fill="#E6E6E6" stroke="#E6E6E6" stroke-miterlimit="10" width="22" height="21"/>
		<rect x="226.8" y="176" fill="#E6E6E6" stroke="#E6E6E6" stroke-miterlimit="10" width="22" height="21"/>
		<rect x="226.8" y="201" fill="#E6E6E6" stroke="#E6E6E6" stroke-miterlimit="10" width="22" height="21"/>
		<rect x="226.8" y="226" fill="#E6E6E6" stroke="#E6E6E6" stroke-miterlimit="10" width="22" height="21"/>
		<rect x="226.8" y="251" fill="#E6E6E6" stroke="#E6E6E6" stroke-miterlimit="10" width="22" height="21"/>
		<rect x="226.8" y="276" fill="#E6E6E6" stroke="#E6E6E6" stroke-miterlimit="10" width="22" height="21"/>
	</g>
	<g>
		<rect x="251.8" y="1" fill="#E6E6E6" stroke="#E6E6E6" stroke-miterlimit="10" width="22" height="21"/>
		<rect x="251.8" y="26" fill="#E6E6E6" stroke="#E6E6E6" stroke-miterlimit="10" width="22" height="21"/>
		<rect x="251.8" y="51" fill="#E6E6E6" stroke="#E6E6E6" stroke-miterlimit="10" width="22" height="21"/>
		<rect x="251.8" y="76" fill="#E6E6E6" stroke="#E6E6E6" stroke-miterlimit="10" width="22" height="21"/>
		<rect x="251.8" y="101" fill="#E6E6E6" stroke="#E6E6E6" stroke-miterlimit="10" width="22" height="21"/>
		<rect x="251.8" y="126" fill="#E6E6E6" stroke="#E6E6E6" stroke-miterlimit="10" width="22" height="21"/>
		<rect x="251.8" y="151" fill="#E6E6E6" stroke="#E6E6E6" stroke-miterlimit="10" width="22" height="21"/>
		<rect x="251.8" y="176" fill="#E6E6E6" stroke="#E6E6E6" stroke-miterlimit="10" width="22" height="21"/>
		<rect x="251.8" y="201" fill="#E6E6E6" stroke="#E6E6E6" stroke-miterlimit="10" width="22" height="21"/>
		<rect x="251.8" y="226" fill="#E6E6E6" stroke="#E6E6E6" stroke-miterlimit="10" width="22" height="21"/>
		<rect x="251.8" y="251" fill="#E6E6E6" stroke="#E6E6E6" stroke-miterlimit="10" width="22" height="21"/>
		<rect x="251.8" y="276" fill="#E6E6E6" stroke="#E6E6E6" stroke-miterlimit="10" width="22" height="21"/>
	</g>
	<g>
		<rect x="277.8" y="1" fill="#E6E6E6" stroke="#E6E6E6" stroke-miterlimit="10" width="21" height="21"/>
		<rect x="277.8" y="26" fill="#E6E6E6" stroke="#E6E6E6" stroke-miterlimit="10" width="21" height="21"/>
		<rect x="277.8" y="51" fill="#E6E6E6" stroke="#E6E6E6" stroke-miterlimit="10" width="21" height="21"/>
		<rect x="277.8" y="76" fill="#E6E6E6" stroke="#E6E6E6" stroke-miterlimit="10" width="21" height="21"/>
		<rect x="277.8" y="101" fill="#E6E6E6" stroke="#E6E6E6" stroke-miterlimit="10" width="21" height="21"/>
		<rect x="277.8" y="126" fill="#E6E6E6" stroke="#E6E6E6" stroke-miterlimit="10" width="21" height="21"/>
		<rect x="277.8" y="151" fill="#E6E6E6" stroke="#E6E6E6" stroke-miterlimit="10" width="21" height="21"/>
		<rect x="277.8" y="176" fill="#E6E6E6" stroke="#E6E6E6" stroke-miterlimit="10" width="21" height="21"/>
		<rect x="277.8" y="201" fill="#E6E6E6" stroke="#E6E6E6" stroke-miterlimit="10" width="21" height="21"/>
		<rect x="277.8" y="226" fill="#E6E6E6" stroke="#E6E6E6" stroke-miterlimit="10" width="21" height="21"/>
		<rect x="277.8" y="251" fill="#E6E6E6" stroke="#E6E6E6" stroke-miterlimit="10" width="21" height="21"/>
		<rect x="277.8" y="276" fill="#E6E6E6" stroke="#E6E6E6" stroke-miterlimit="10" width="21" height="21"/>
	</g>
	<g>
		<rect x="126.8" y="1" fill="#E6E6E6" stroke="#E6E6E6" stroke-miterlimit="10" width="21" height="21"/>
		<rect x="126.8" y="26" fill="#E6E6E6" stroke="#E6E6E6" stroke-miterlimit="10" width="21" height="21"/>
		<rect x="126.8" y="51" fill="#E6E6E6" stroke="#E6E6E6" stroke-miterlimit="10" width="21" height="21"/>
		<rect x="126.8" y="76" fill="#E6E6E6" stroke="#E6E6E6" stroke-miterlimit="10" width="21" height="21"/>
		<rect x="126.8" y="101" fill="#E6E6E6" stroke="#E6E6E6" stroke-miterlimit="10" width="21" height="21"/>
		<rect x="126.8" y="126" fill="#E6E6E6" stroke="#E6E6E6" stroke-miterlimit="10" width="21" height="21"/>
		<rect x="126.8" y="151" fill="#E6E6E6" stroke="#E6E6E6" stroke-miterlimit="10" width="21" height="21"/>
		<rect x="126.8" y="176" fill="#E6E6E6" stroke="#E6E6E6" stroke-miterlimit="10" width="21" height="21"/>
		<rect x="126.8" y="201" fill="#E6E6E6" stroke="#E6E6E6" stroke-miterlimit="10" width="21" height="21"/>
		<rect x="126.8" y="226" fill="#E6E6E6" stroke="#E6E6E6" stroke-miterlimit="10" width="21" height="21"/>
		<rect x="126.8" y="251" fill="#E6E6E6" stroke="#E6E6E6" stroke-miterlimit="10" width="21" height="21"/>
		<rect x="126.8" y="276" fill="#E6E6E6" stroke="#E6E6E6" stroke-miterlimit="10" width="21" height="21"/>
	</g>
	<g>
		<rect x="151.8" y="1" fill="#E6E6E6" stroke="#E6E6E6" stroke-miterlimit="10" width="21" height="21"/>
		<rect x="151.8" y="26" fill="#E6E6E6" stroke="#E6E6E6" stroke-miterlimit="10" width="21" height="21"/>
		<rect x="151.8" y="51" fill="#E6E6E6" stroke="#E6E6E6" stroke-miterlimit="10" width="21" height="21"/>
		<rect x="151.8" y="76" fill="#E6E6E6" stroke="#E6E6E6" stroke-miterlimit="10" width="21" height="21"/>
		<rect x="151.8" y="101" fill="#E6E6E6" stroke="#E6E6E6" stroke-miterlimit="10" width="21" height="21"/>
		<rect x="151.8" y="126" fill="#E6E6E6" stroke="#E6E6E6" stroke-miterlimit="10" width="21" height="21"/>
		<rect x="151.8" y="151" fill="#E6E6E6" stroke="#E6E6E6" stroke-miterlimit="10" width="21" height="21"/>
		<rect x="151.8" y="176" fill="#E6E6E6" stroke="#E6E6E6" stroke-miterlimit="10" width="21" height="21"/>
		<rect x="151.8" y="201" fill="#E6E6E6" stroke="#E6E6E6" stroke-miterlimit="10" width="21" height="21"/>
		<rect x="151.8" y="226" fill="#E6E6E6" stroke="#E6E6E6" stroke-miterlimit="10" width="21" height="21"/>
		<rect x="151.8" y="251" fill="#E6E6E6" stroke="#E6E6E6" stroke-miterlimit="10" width="21" height="21"/>
		<rect x="151.8" y="276" fill="#E6E6E6" stroke="#E6E6E6" stroke-miterlimit="10" width="21" height="21"/>
	</g>
	<g>
		<rect x="176.8" y="1" fill="#E6E6E6" stroke="#E6E6E6" stroke-miterlimit="10" width="21" height="21"/>
		<rect x="176.8" y="26" fill="#E6E6E6" stroke="#E6E6E6" stroke-miterlimit="10" width="21" height="21"/>
		<rect x="176.8" y="51" fill="#E6E6E6" stroke="#E6E6E6" stroke-miterlimit="10" width="21" height="21"/>
		<rect x="176.8" y="76" fill="#E6E6E6" stroke="#E6E6E6" stroke-miterlimit="10" width="21" height="21"/>
		<rect x="176.8" y="101" fill="#E6E6E6" stroke="#E6E6E6" stroke-miterlimit="10" width="21" height="21"/>
		<rect x="176.8" y="126" fill="#E6E6E6" stroke="#E6E6E6" stroke-miterlimit="10" width="21" height="21"/>
		<rect x="176.8" y="151" fill="#E6E6E6" stroke="#E6E6E6" stroke-miterlimit="10" width="21" height="21"/>
		<rect x="176.8" y="176" fill="#E6E6E6" stroke="#E6E6E6" stroke-miterlimit="10" width="21" height="21"/>
		<rect x="176.8" y="201" fill="#E6E6E6" stroke="#E6E6E6" stroke-miterlimit="10" width="21" height="21"/>
		<rect x="176.8" y="226" fill="#E6E6E6" stroke="#E6E6E6" stroke-miterlimit="10" width="21" height="21"/>
		<rect x="176.8" y="251" fill="#E6E6E6" stroke="#E6E6E6" stroke-miterlimit="10" width="21" height="21"/>
		<rect x="176.8" y="276" fill="#E6E6E6" stroke="#E6E6E6" stroke-miterlimit="10" width="21" height="21"/>
	</g>
</g>
<rect x="72.4" y="74.1" fill="#FFFFFF" width="152.7" height="149.7"/>
<g>
	<linearGradient id="XMLID_32_" gradientUnits="userSpaceOnUse" x1="95.1673" y1="261.9851" x2="248.2901" y2="169.5678">
		<stop  offset="0" style="stop-color:#FCEE39"/>
		<stop  offset="1" style="stop-color:#F37B3D"/>
	</linearGradient>
	<path id="XMLID_30_" fill="url(#XMLID_32_)" d="M264.7,166.8c1.7-1.6,2.8-3.7,2.9-6.2c0.2-5-3.6-9.3-8.6-9.5
		c-2.4-0.1-4.7,0.7-6.4,2.2l0,0L88.9,242.9c-3.7,1.6-7,4.3-9.2,8.1c-5.6,9.4-2.5,21.6,6.9,27.1c6.7,4,14.7,3.5,20.8-0.4l0,0l0,0
		c0.5-0.3,0.9-0.6,1.4-1l152.3-107.1C262,168.9,264.1,167.3,264.7,166.8L264.7,166.8L264.7,166.8z"/>
	<linearGradient id="XMLID_33_" gradientUnits="userSpaceOnUse" x1="127.4319" y1="40.0139" x2="267.1917" y2="162.3696">
		<stop  offset="0" style="stop-color:#EF5A6B"/>
		<stop  offset="0.57" style="stop-color:#F26F4E"/>
		<stop  offset="1" style="stop-color:#F37B3D"/>
	</linearGradient>
	<path id="XMLID_29_" fill="url(#XMLID_33_)" d="M264.9,153.8L264.9,153.8L140.4,31.4c-2.8-3-6.7-4.9-11.1-4.9
		c-8.3,0-15.1,6.8-15.1,15.1v0c0,4,1.6,7.7,4.2,10.4l0,0l0.1,0c0.7,0.7,1.5,1.4,2.3,2l131.6,112.7l0,0c1.5,1.4,3.5,2.4,5.8,2.5
		c5,0.2,9.3-3.6,9.5-8.6C267.7,157.9,266.7,155.5,264.9,153.8z"/>
	<linearGradient id="XMLID_34_" gradientUnits="userSpaceOnUse" x1="136.389" y1="150.8192" x2="53.5595" y2="99.0917">
		<stop  offset="0" style="stop-color:#7C59A4"/>
		<stop  offset="0.3852" style="stop-color:#AF4C92"/>
		<stop  offset="0.7654" style="stop-color:#DC4183"/>
		<stop  offset="0.957" style="stop-color:#ED3D7D"/>
	</linearGradient>
	<path id="XMLID_28_" fill="url(#XMLID_34_)" d="M144.5,142.8c-0.2-0.1-76.8-60.7-78.4-61.7L66,81.1l0,0c-1.1-0.7-2.3-1.2-3.5-1.7
		c-11.3-4.2-23.9,1.5-28.1,12.8c-3.7,10,0.3,20.9,9,26.2l0,0l0.1,0c1.2,0.7,2.4,1.3,3.7,1.8c0.8,0.3,88.6,36.7,88.6,36.7l0,0
		c3.4,1.5,7.6,0.7,10-2.4C148.7,151,148.1,145.7,144.5,142.8z"/>
	<linearGradient id="XMLID_35_" gradientUnits="userSpaceOnUse" x1="134.8791" y1="33.7514" x2="54.0139" y2="100.5388">
		<stop  offset="0" style="stop-color:#EF5A6B"/>
		<stop  offset="0.364" style="stop-color:#EE4E72"/>
		<stop  offset="1" style="stop-color:#ED3D7D"/>
	</linearGradient>
	<path id="XMLID_27_" fill="url(#XMLID_35_)" d="M129.3,26.5c-3.3,0-6.4,1.1-8.9,2.9L42.5,81.9c-0.2,0.1-0.3,0.2-0.5,0.3l-0.1,0.1
		l0,0c-3.3,2.4-6,5.8-7.6,10c-4.2,11.3,1.5,23.9,12.8,28.1c7.1,2.6,14.6,1.4,20.4-2.7l0,0l0,0c1.3-0.9,2.4-2,3.5-3.2l67.6-60.9l0,0
		c3.5-2.8,5.8-7.1,5.8-11.9v0C144.4,33.3,137.6,26.5,129.3,26.5z"/>
	<g id="XMLID_1_">
		<rect id="XMLID_26_" x="100.5" y="99.6" width="99.5" height="99.5"/>
		<rect id="XMLID_25_" x="109.1" y="180.5" fill="#FFFFFF" width="37.3" height="6.2"/>
		<g id="XMLID_2_">
			<path id="XMLID_23_" fill="#FFFFFF" d="M108.7,125.8l2.9-2.7c0.8,1,1.5,1.5,2.5,1.5c1.1,0,1.8-0.8,1.8-2.3l0-10.3l4.5,0l0,10.3
				c0,2-0.5,3.5-1.6,4.6c-1.1,1.1-2.6,1.6-4.4,1.6C111.6,128.5,109.9,127.4,108.7,125.8z"/>
			<path id="XMLID_21_" fill="#FFFFFF" d="M121.5,112l13,0v3.8l-8.6,0l0,2.5l7.8,0l0,3.5l-7.8,0v2.6l8.7,0v3.8l-13.2,0L121.5,112z"
				/>
			<path id="XMLID_19_" fill="#FFFFFF" d="M140.4,116l-4.8,0V112l14.2,0v3.9l-4.9,0l0,12.3l-4.5,0L140.4,116z"/>
			<path id="XMLID_15_" fill="#FFFFFF" d="M109.1,132l8.3,0c2,0,3.5,0.5,4.4,1.4c0.6,0.7,1,1.5,1,2.6v0c0,1.9-1.1,3-2.5,3.6
				c2,0.6,3.2,1.8,3.2,4v0c0,2.8-2.3,4.5-6.1,4.5l-8.4,0L109.1,132z M118.5,137.1c0-0.9-0.7-1.4-2-1.4h-2.9l0,2.9h2.8
				C117.7,138.5,118.5,138,118.5,137.1L118.5,137.1z M116.9,141.7l-3.4,0l0,3h3.5c1.4,0,2.2-0.5,2.2-1.5v0
				C119.1,142.2,118.4,141.7,116.9,141.7z"/>
			<path id="XMLID_12_" fill="#FFFFFF" d="M124.3,132l7.7,0c2.5,0,4.2,0.6,5.3,1.7c1,1,1.4,2.2,1.4,3.8v0c0,2.5-1.3,4.1-3.3,5
				l3.9,5.7H134l-3.3-4.9l-2,0v4.9h-4.5L124.3,132z M131.8,139.8c1.5,0,2.4-0.7,2.4-1.9v0c0-1.3-1-1.9-2.4-1.9l-3,0l0,3.9H131.8z"/>
			<path id="XMLID_9_" fill="#FFFFFF" d="M143.9,131.9h4.3l6.9,16.3h-4.8l-1.2-2.9l-6.3,0l-1.2,2.9l-4.7,0L143.9,131.9z
				 M147.9,141.8l-1.8-4.6l-1.8,4.6L147.9,141.8z"/>
			<path id="XMLID_7_" fill="#FFFFFF" d="M155.7,132l4.5,0l0,16.2l-4.5,0L155.7,132z"/>
			<path id="XMLID_5_" fill="#FFFFFF" d="M161.3,132h4.2l6.7,8.6l0-8.6l4.4,0l0,16.2l-3.9,0l-7-8.9l0,8.9h-4.4L161.3,132z"/>
			<path id="XMLID_3_" fill="#FFFFFF" d="M176.9,145.9l2.5-3c1.6,1.3,3.4,1.9,5.3,1.9c1.2,0,1.9-0.4,1.9-1.1v0c0-0.7-0.5-1-2.8-1.6
				c-3.5-0.8-6.1-1.8-6.1-5.1v0c0-3,2.4-5.2,6.3-5.2c2.8,0,4.9,0.7,6.7,2.2l-2.2,3.2c-1.5-1.1-3.1-1.6-4.5-1.6c-1.1,0-1.6,0.4-1.6,1
				v0c0,0.7,0.6,1.1,2.8,1.6c3.7,0.8,6,2,6,5.1v0c0,3.3-2.6,5.3-6.6,5.3C181.6,148.5,178.9,147.6,176.9,145.9z"/>
		</g>
	</g>
</g>
<g>
	<g>
		<polyline fill="none" stroke="#4D4D4D" stroke-miterlimit="10" points="225.1,222.3 225.1,223.8 223.6,223.8 		"/>
		
			<line fill="none" stroke="#4D4D4D" stroke-miterlimit="10" stroke-dasharray="3.0528,3.0528" x1="220.6" y1="223.8" x2="75.6" y2="223.8"/>
		<polyline fill="none" stroke="#4D4D4D" stroke-miterlimit="10" points="74,223.8 72.5,223.8 72.5,222.3 		"/>
		
			<line fill="none" stroke="#4D4D4D" stroke-miterlimit="10" stroke-dasharray="2.9933,2.9933" x1="72.5" y1="219.3" x2="72.5" y2="77.1"/>
		<polyline fill="none" stroke="#4D4D4D" stroke-miterlimit="10" points="72.5,75.6 72.5,74.1 74,74.1 		"/>
		
			<line fill="none" stroke="#4D4D4D" stroke-miterlimit="10" stroke-dasharray="3.0528,3.0528" x1="77.1" y1="74.1" x2="222.1" y2="74.1"/>
		<polyline fill="none" stroke="#4D4D4D" stroke-miterlimit="10" points="223.6,74.1 225.1,74.1 225.1,75.6 		"/>
		
			<line fill="none" stroke="#4D4D4D" stroke-miterlimit="10" stroke-dasharray="2.9933,2.9933" x1="225.1" y1="78.6" x2="225.1" y2="220.8"/>
	</g>
</g>
</svg>
