<?xml version="1.0" encoding="UTF-8"?>
<svg width="47px" height="50px" viewBox="0 0 47 50" version="1.1" xmlns="http://www.w3.org/2000/svg" xmlns:xlink="http://www.w3.org/1999/xlink">
    <g id="Page-1" stroke="none" stroke-width="1" fill="none" fill-rule="evenodd">
        <g id="WEBSITE" transform="translate(-200.000000, -5537.000000)" fill-rule="nonzero" fill="#FFFFFF">
            <g id="FOOTER" transform="translate(0.000000, 5474.000000)">
                <g id="FOOTER-STUFF" transform="translate(200.000000, 63.000000)">
                    <path d="M46.5133065,0.190640667 C46.1589693,-0.0508523919 45.699907,-0.0637251562 45.3338772,0.156656569 L0.539968133,27.0766962 C0.159703879,27.3053165 -0.0487297368,27.7414458 0.00973335048,28.1847838 C0.0671796884,28.6276069 0.38186361,28.9937083 0.806864836,29.1141974 L12.1888654,32.323635 C12.5345601,32.4204381 12.9051653,32.3421717 13.1832462,32.1125216 L31.3667915,17.0673496 L18.6823351,33.4657066 C18.5293143,33.6624024 18.447466,33.9054402 18.447466,34.1551719 L18.447466,48.8826441 C18.447466,49.3800477 18.7707922,49.8166918 19.2420556,49.9552028 C19.3442389,49.9860974 19.4479473,50 19.550639,50 C19.9207358,50 20.2750729,49.8115427 20.4809646,49.4830298 L28.3999169,36.8934663 L39.9766249,40.1569695 C40.280633,40.2429596 40.6070095,40.1914685 40.8733979,40.0174287 C41.1382611,39.842874 41.3172089,39.5617329 41.3649962,39.2455778 L46.98762,1.28379581 C47.0511669,0.857449858 46.8666269,0.431618815 46.5133065,0.190640667 Z" id="EMAIL-ICON"></path>
                </g>
            </g>
        </g>
    </g>
</svg>